<?xml version="1.0" encoding="utf-8"?>
<!-- Generator: Adobe Illustrator 19.0.0, SVG Export Plug-In . SVG Version: 6.00 Build 0)  -->
<svg version="1.1" id="Layer_1" xmlns="http://www.w3.org/2000/svg" xmlns:xlink="http://www.w3.org/1999/xlink" x="0px" y="0px"
	 viewBox="0 0 500 500" style="enable-background:new 0 0 500 500;" xml:space="preserve">
<style type="text/css">
	.st0{fill:#F15A23;}
	.st1{fill:#005E6A;}
</style>
<g id="XMLID_1_">
	<polygon id="XMLID_2_" class="st0" points="67.5,233.8 98.3,272.6 67.5,298.1 	"/>
	<polygon id="XMLID_3_" class="st0" points="79.9,298.1 103.1,278.7 119.1,298.1 	"/>
	<path id="XMLID_4_" class="st0" d="M67.5,213l8,10.2l33,41.3l10.7-8.5c0,0-8.9-10.5-14.9-22.1c-11.7-22.8-3.4-37-3.4-37H67.5V213z"
		/>
	<path id="XMLID_5_" class="st0" d="M113.3,270.8l10.9-9c0,0,10.4,13.7,22.5,16.9c15.8,4.2,22.8-6.1,22.8-6.1v25.5h-34.8l7.8-6.8
		c0,0-4.1,2.7-14.1-4.2C122.6,283.1,113.3,270.8,113.3,270.8z"/>
	<path id="XMLID_6_" class="st0" d="M114.3,196.7c0,0-3.5,4.7-1,16.3c2.6,12.4,13.2,25.5,13.1,25.2c0,0,0.7-13,8.3-20.7
		c16.3-16.3,34.8-6.6,34.8-6.6v-14.2L114.3,196.7z"/>
	<path id="XMLID_7_" class="st0" d="M169.5,228.1c0,0-10.3-8.8-19.3-8.8c-11.5,0-17.7,9.9-17.7,17.1c0,10.5,5,16.3,10.1,21.3
		c7.2,7.2,16,15,26.9,8.8C169.5,254.5,169.5,228.1,169.5,228.1z"/>
	<path id="XMLID_8_" class="st1" d="M286.8,197.7h24.3c0,0,21.5,32.6,32.1,46.1c10.6,13.5,22,28.8,22,28.8s0-44.5,0-67.6
		c0-2.9-7.7-7.3-7.7-7.3h28c0,0-9.2,3.8-9.2,7.3c0,28.8,0,98.3,0,98.3s-8.8-4.9-18.8-16.5c-11.2-13.1-51.2-65.8-51.2-65.8
		s0,49.8,0,68.3c0,3.5,7.7,8.8,7.7,8.8h-27.2c0,0,7.4-5.3,7.4-8.8c0-24.9,0-61.2,0-84.3C294.3,201.9,286.8,197.7,286.8,197.7z"/>
	<path id="XMLID_9_" class="st1" d="M401.3,197.7h31.2c0,0-8.4,4-8.4,7.3c0,23.1,0,61.4,0,84.3c0,3.6,8.4,8.8,8.4,8.8h-31.2
		c0,0,7.8-5.3,7.8-8.8c0-27.5,0-61.2,0-84.3C409.1,201.8,401.3,197.7,401.3,197.7z"/>
	<path id="XMLID_10_" class="st1" d="M195,197.7c0,0,8.1,4,8.1,7.3c0,23.1,0,56.8,0,84.3c0,3.6-8.1,8.8-8.1,8.8s40.4,0,46.2,0
		c2.9,0,35.2-5.3,35.2-30.2s-25.1-27.3-25.1-27.3s15.3-4.3,15.3-21.3c0-18.4-22.5-21.6-25.4-21.6C235.3,197.7,195,197.7,195,197.7z
		 M219.6,239v-31.4c0,0,13.4,0,18.8,0c2.9,0,13,3.4,13,15.9c0,10.3-10.1,15.5-13,15.5C231.8,239,219.6,239,219.6,239z M219.6,247.2
		c0,0,18.8,0,21.7,0c2.9,0,19.9,4.4,19.9,19.2c0,15.1-17,20.4-19.9,20.4c-2.9,0-21.7,0-21.7,0V247.2z"/>
</g>
</svg>
